<svg xmlns="http://www.w3.org/2000/svg" viewBox="0 0 258 61"><defs><style>.cls-1{fill:#fff;stroke:#d8d8d8;stroke-miterlimit:10;}.cls-2{fill:#7e36c3;}</style></defs><g id="레이어_2" data-name="레이어 2"><g id="레이어_2-2" data-name="레이어 2"><rect class="cls-1" x="0.5" y="0.5" width="257" height="60" rx="30"/><path class="cls-2" d="M80,25.76s0-.07,0-.1a.92.92,0,0,0-.19-.35l-7-7a.92.92,0,0,0-.35-.19h-.1l-.1,0H61.67a.77.77,0,0,0-.78.77V42.16a.77.77,0,0,0,.78.77H79.29a.76.76,0,0,0,.77-.77V25.86A.3.3,0,0,0,80,25.76Zm-7-5,2.18,2.18,2.18,2.18H73.05ZM62.44,41.38V19.62h9v6.24a.77.77,0,0,0,.78.77h6.24V41.38Z"/><path class="cls-2" d="M75.78,29.72H65.17a.78.78,0,0,0,0,1.56H75.78a.78.78,0,0,0,0-1.56Z"/><path class="cls-2" d="M75.78,33H65.17a.78.78,0,0,0,0,1.56H75.78a.78.78,0,0,0,0-1.56Z"/><path class="cls-2" d="M75.78,36.36H65.17a.78.78,0,0,0,0,1.56H75.78a.78.78,0,0,0,0-1.56Z"/><path d="M106.18,21.56v16.8h-2V21.56Zm-.91,0h8.47v1.92h-8.47Zm0,6.72h8V30.2h-8Zm0,8.16h8.47v1.92h-8.47Z"/><path d="M132.1,21.56V39.2L119.38,25.85V38.36h-2V20.72l12.72,13.34V21.56Z"/><path d="M143.74,29.84h7.8a10.45,10.45,0,0,1-.53,3.32,8.45,8.45,0,0,1-1.56,2.8,7.45,7.45,0,0,1-2.53,1.93,8,8,0,0,1-3.42.71,9,9,0,0,1-3.39-.64,7.94,7.94,0,0,1-2.71-1.8,8.28,8.28,0,0,1-1.79-2.75,9.79,9.79,0,0,1,0-6.91,8.07,8.07,0,0,1,4.5-4.55,9,9,0,0,1,3.39-.63,9.71,9.71,0,0,1,2.87.4,8,8,0,0,1,2.35,1.2,7.26,7.26,0,0,1,1.76,2L149,26.21a5.59,5.59,0,0,0-2.21-2.1,7,7,0,0,0-3.33-.75A6.23,6.23,0,0,0,138,26.51a6.76,6.76,0,0,0-.85,3.45,6.77,6.77,0,0,0,.85,3.43,6.47,6.47,0,0,0,7.75,2.79,4.89,4.89,0,0,0,1.72-1,6.16,6.16,0,0,0,1.19-1.54,6.89,6.89,0,0,0,.68-1.84h-5.59Z"/><path d="M156.58,21.56V36.44h6.6v1.92h-8.64V21.56Z"/><path d="M167.38,21.56v16.8h-2V21.56Z"/><path d="M173.05,35a4.72,4.72,0,0,0,1.43,1.2,3.69,3.69,0,0,0,1.8.44,3.05,3.05,0,0,0,2.16-.75,2.46,2.46,0,0,0,.82-1.89,2.82,2.82,0,0,0-.53-1.8,3.89,3.89,0,0,0-1.38-1.1,15.57,15.57,0,0,0-1.81-.75c-.42-.15-.88-.33-1.4-.57a7.09,7.09,0,0,1-1.46-.88,4.49,4.49,0,0,1-1.14-1.34,3.84,3.84,0,0,1-.44-1.94,4,4,0,0,1,.62-2.23,4.34,4.34,0,0,1,1.73-1.55,5.38,5.38,0,0,1,2.52-.56,5.29,5.29,0,0,1,2.39.51,6.06,6.06,0,0,1,1.74,1.32,6.79,6.79,0,0,1,1.12,1.69l-1.75,1a7.22,7.22,0,0,0-.79-1.22,4.1,4.1,0,0,0-1.16-1,3.46,3.46,0,0,0-1.67-.38,2.62,2.62,0,0,0-2,.66,2.09,2.09,0,0,0-.63,1.48,2.4,2.4,0,0,0,.36,1.28,3.55,3.55,0,0,0,1.21,1.1,11.58,11.58,0,0,0,2.32,1,11.3,11.3,0,0,1,1.42.63,6.39,6.39,0,0,1,1.38,1,4.7,4.7,0,0,1,1,1.42,4.45,4.45,0,0,1,.41,2,4.61,4.61,0,0,1-.42,2,4.5,4.5,0,0,1-1.15,1.51,5.19,5.19,0,0,1-1.66,1,5.72,5.72,0,0,1-1.93.34,5.54,5.54,0,0,1-2.53-.59,6.76,6.76,0,0,1-2-1.56,9.18,9.18,0,0,1-1.43-2.08l1.63-1.1A12.43,12.43,0,0,0,173.05,35Z"/><path d="M186.41,21.56v16.8h-2V21.56Zm-.91,6.72H197V30.2H185.5Zm12.19-6.72v16.8h-2V21.56Z"/></g></g></svg>