<svg xmlns="http://www.w3.org/2000/svg" viewBox="0 0 258 61"><defs><style>.cls-1{fill:#fff;stroke:#d8d8d8;stroke-miterlimit:10;}.cls-2{fill:#7e36c3;}</style></defs><g id="레이어_2" data-name="레이어 2"><g id="레이어_2-2" data-name="레이어 2"><rect class="cls-1" x="0.5" y="0.5" width="257" height="60" rx="30"/><path class="cls-2" d="M80,25.76s0-.07,0-.1a.92.92,0,0,0-.19-.35l-7-7a.92.92,0,0,0-.35-.19h-.1l-.1,0H61.67a.77.77,0,0,0-.78.77V42.16a.77.77,0,0,0,.78.77H79.29a.76.76,0,0,0,.77-.77V25.86A.3.3,0,0,0,80,25.76Zm-7-5,2.18,2.18,2.18,2.18H73.05ZM62.44,41.38V19.62h9v6.24a.77.77,0,0,0,.78.77h6.24V41.38Z"/><path class="cls-2" d="M75.78,29.72H65.17a.78.78,0,0,0,0,1.56H75.78a.78.78,0,0,0,0-1.56Z"/><path class="cls-2" d="M75.78,33H65.17a.78.78,0,0,0,0,1.56H75.78a.78.78,0,0,0,0-1.56Z"/><path class="cls-2" d="M75.78,36.36H65.17a.78.78,0,0,0,0,1.56H75.78a.78.78,0,0,0,0-1.56Z"/><path d="M108.67,21.56v16.8h-2V21.56Zm9.12,0-7.27,7.87,7.63,8.93h-2.52l-7.58-8.88,7.22-7.92Z"/><path d="M118.67,26.54a8.18,8.18,0,0,1,1.79-2.74A8.29,8.29,0,0,1,123.17,22,9,9,0,0,1,130,22a8.24,8.24,0,0,1,4.49,4.56,9.54,9.54,0,0,1,0,6.82,8.18,8.18,0,0,1-1.79,2.75,8.38,8.38,0,0,1-2.7,1.83,9,9,0,0,1-6.78,0,8.31,8.31,0,0,1-2.71-1.83,8,8,0,0,1-1.79-2.75,9.4,9.4,0,0,1,0-6.82Zm2.35,6.8a6.31,6.31,0,0,0,11.06,0,7.32,7.32,0,0,0,0-6.77,6.27,6.27,0,0,0-2.25-2.35,6.65,6.65,0,0,0-6.54,0A6.25,6.25,0,0,0,121,26.57a7.32,7.32,0,0,0,0,6.77Z"/><path d="M140,21.56v16.8h-2V21.56Zm-.91,0h3.43a6.69,6.69,0,0,1,2.92.61,5,5,0,0,1,2,1.74,5.11,5.11,0,0,1,0,5.36,4.9,4.9,0,0,1-2,1.75,6.69,6.69,0,0,1-2.92.62h-3.43v-1.8h3.43a4.43,4.43,0,0,0,1.91-.39,3,3,0,0,0,1.3-1.1,3.51,3.51,0,0,0,0-3.51,3.05,3.05,0,0,0-1.3-1.1,4.43,4.43,0,0,0-1.91-.38h-3.43Zm4.15,8.52,6,8.28h-2.52L141,30.08Z"/><path d="M153.43,21.56v16.8h-2V21.56Zm-.91,0H161v1.92h-8.47Zm0,6.72h8V30.2h-8Zm0,8.16H161v1.92h-8.47Z"/><path d="M167.76,32l-.19.43-2.5,5.91h-2.28l7.8-17.64,7.8,17.64h-2.28l-2.45-5.76-.19-.48-2.88-6.77Zm-.84-.62h7.44l.72,1.92H166.2Z"/><path d="M195.19,21.56V39.2L182.47,25.85V38.36h-2V20.72l12.72,13.34V21.56Z"/></g></g></svg>