<svg xmlns="http://www.w3.org/2000/svg" xmlns:xlink="http://www.w3.org/1999/xlink" viewBox="0 0 200 106.63"><defs><style>.cls-1{fill:url(#무제_그라디언트_5);}</style><linearGradient id="무제_그라디언트_5" x1="100" y1="106.63" x2="100" gradientUnits="userSpaceOnUse"><stop offset="0" stop-color="#650e96"/><stop offset="0.13" stop-color="#85139d"/><stop offset="0.28" stop-color="#a417a4"/><stop offset="0.44" stop-color="#bd1ba9"/><stop offset="0.61" stop-color="#ce1dad"/><stop offset="0.79" stop-color="#d91faf"/><stop offset="1" stop-color="#dc1fb0"/></linearGradient></defs><g id="레이어_2" data-name="레이어 2"><g id="레이어_2-2" data-name="레이어 2"><path class="cls-1" d="M0,104.38V104c0-.16.08-.24.25-.24h.92a.22.22,0,0,1,.25.24v.26a1.2,1.2,0,0,0,.26.88,1.23,1.23,0,0,0,.89.26h1a1.19,1.19,0,0,0,.89-.28,1.27,1.27,0,0,0,.28-.91v-.34a.84.84,0,0,0-.36-.72,1.8,1.8,0,0,0-.87-.35c-.35,0-.73-.13-1.14-.23a7.74,7.74,0,0,1-1.14-.33,1.76,1.76,0,0,1-.88-.71A2.31,2.31,0,0,1,0,100.21V99.6A2.23,2.23,0,0,1,.6,98a2.23,2.23,0,0,1,1.65-.6H3.78a2.25,2.25,0,0,1,1.67.6,2.23,2.23,0,0,1,.6,1.65v.32c0,.16-.08.24-.25.24H4.88a.21.21,0,0,1-.24-.24v-.19a1.23,1.23,0,0,0-.27-.89,1.23,1.23,0,0,0-.89-.27H2.57a1.19,1.19,0,0,0-.89.29,1.35,1.35,0,0,0-.26,1v.44c0,.44.31.73.93.89.28.06.59.12.92.17a8.9,8.9,0,0,1,1,.21,4.33,4.33,0,0,1,.93.39,1.82,1.82,0,0,1,.68.72,2.48,2.48,0,0,1,.26,1.18v.56a2.23,2.23,0,0,1-.6,1.65,2.24,2.24,0,0,1-1.66.6H2.27A2.24,2.24,0,0,1,.61,106,2.2,2.2,0,0,1,0,104.38Zm11.85,2.25H10.18A2.23,2.23,0,0,1,8.53,106a2.23,2.23,0,0,1-.59-1.65v-4.8a2.24,2.24,0,0,1,.59-1.66,2.23,2.23,0,0,1,1.65-.58h1.67a2.28,2.28,0,0,1,1.67.58,2.24,2.24,0,0,1,.59,1.66v4.8a2.23,2.23,0,0,1-.59,1.65A2.28,2.28,0,0,1,11.85,106.63Zm-1.47-1.23h1.26a.93.93,0,0,0,1-1.06v-4.7a.94.94,0,0,0-1-1.07H10.38a.94.94,0,0,0-1,1.07v4.7A.93.93,0,0,0,10.38,105.4Zm9.45,1.23H18.15a2,2,0,0,1-2.24-2.24v-4.8a2,2,0,0,1,2.24-2.24h1.68a2,2,0,0,1,2.23,2.24v.69a.23.23,0,0,1-.26.26h-.91c-.16,0-.24-.09-.24-.26v-.64a.94.94,0,0,0-1-1.07H18.35a.94.94,0,0,0-1,1.07v4.7a.93.93,0,0,0,1,1.06h1.26a.93.93,0,0,0,1-1.06v-.64c0-.17.08-.26.24-.26h.91a.23.23,0,0,1,.26.26v.69a2.19,2.19,0,0,1-.59,1.65A2.22,2.22,0,0,1,19.83,106.63Zm5.5-9v8.8a.22.22,0,0,1-.25.24h-.91a.21.21,0,0,1-.24-.24v-8.8a.21.21,0,0,1,.24-.24h.91A.22.22,0,0,1,25.33,97.59Zm2.68,9H27c-.13,0-.18-.08-.14-.24l2.51-8.8a.32.32,0,0,1,.35-.24h1.44a.32.32,0,0,1,.35.24l2.51,8.8c0,.16,0,.24-.16.24h-1c-.09,0-.15,0-.18,0a.34.34,0,0,1-.08-.19L32,104.51H28.82l-.55,1.88C28.23,106.55,28.15,106.63,28,106.63Zm2.37-7.9-1.27,4.62h2.61l-1.28-4.62Zm10,7.9H35.67c-.17,0-.25-.08-.25-.24v-8.8c0-.16.08-.24.25-.24h.9c.17,0,.25.08.25.24v7.64c0,.1.06.15.17.15h3.35c.17,0,.25.08.25.26v.75C40.59,106.55,40.51,106.63,40.34,106.63Zm11.37-9.28h1.61c.17,0,.25.08.25.24v8.8c0,.16-.08.24-.25.24h-.89a.22.22,0,0,1-.25-.24v-7.3h0l-1.88,5.29a.32.32,0,0,1-.32.23H49a.32.32,0,0,1-.31-.23l-1.92-5.3h-.05v7.31a.29.29,0,0,1,0,.19.27.27,0,0,1-.2,0H45.6a.22.22,0,0,1-.25-.24v-8.8a.22.22,0,0,1,.25-.24h1.62a.24.24,0,0,1,.23.16l2,5.57h.07l2-5.57C51.51,97.4,51.58,97.35,51.71,97.35Zm8.83,9.28H55.92a.21.21,0,0,1-.24-.24v-8.8a.21.21,0,0,1,.24-.24h4.62a.21.21,0,0,1,.24.24v.74a.21.21,0,0,1-.24.24H57.25c-.11,0-.17.05-.17.15v2.44c0,.1.06.14.17.14H60a.23.23,0,0,1,.26.25v.74c0,.16-.09.24-.26.24H57.25c-.11,0-.17,0-.17.15v2.57c0,.1.06.15.17.15h3.29a.22.22,0,0,1,.24.25v.74A.21.21,0,0,1,60.54,106.63Zm2.07-.24v-8.8a.21.21,0,0,1,.24-.24h3.56a2.26,2.26,0,0,1,1.65.58,2.21,2.21,0,0,1,.6,1.66v4.8a2.2,2.2,0,0,1-.6,1.65,2.27,2.27,0,0,1-1.65.59H62.85A.21.21,0,0,1,62.61,106.39Zm1.56-1h2a.92.92,0,0,0,1-1.06v-4.7a.93.93,0,0,0-1-1.07h-2c-.11,0-.16.05-.16.15v6.53C64,105.35,64.06,105.4,64.17,105.4Zm7.93-7.81v8.8a.22.22,0,0,1-.25.24h-.91a.21.21,0,0,1-.24-.24v-8.8a.21.21,0,0,1,.24-.24h.91A.22.22,0,0,1,72.1,97.59Zm2.68,9h-1c-.13,0-.18-.08-.14-.24l2.51-8.8a.32.32,0,0,1,.35-.24H77.9a.32.32,0,0,1,.35.24l2.51,8.8c0,.16,0,.24-.16.24h-1c-.09,0-.15,0-.18,0a.28.28,0,0,1-.08-.19l-.55-1.88H75.59L75,106.39C75,106.55,74.92,106.63,74.78,106.63Zm2.37-7.9-1.27,4.62h2.61l-1.28-4.62Zm12.24,7.9H87.72a2,2,0,0,1-2.24-2.24v-4.8a2,2,0,0,1,2.24-2.24h1.67a2,2,0,0,1,2.24,2.24v.69a.23.23,0,0,1-.26.26h-.91c-.16,0-.24-.09-.24-.26v-.64a.94.94,0,0,0-1-1.07H87.92a.94.94,0,0,0-1,1.07v4.7a.93.93,0,0,0,1,1.06h1.26a.93.93,0,0,0,1-1.06v-.64c0-.17.08-.26.24-.26h.91a.23.23,0,0,1,.26.26v.69a2,2,0,0,1-2.24,2.24Zm7.8,0H95.52a2,2,0,0,1-2.24-2.24v-4.8a2,2,0,0,1,2.24-2.24h1.67a2.25,2.25,0,0,1,1.66.58,2.2,2.2,0,0,1,.59,1.66v4.8a2.19,2.19,0,0,1-.59,1.65A2.26,2.26,0,0,1,97.19,106.63Zm-1.47-1.23H97A.93.93,0,0,0,98,104.34v-4.7A.94.94,0,0,0,97,98.57H95.72a.94.94,0,0,0-1,1.07v4.7A.93.93,0,0,0,95.72,105.4Zm6.81,1.23h-.89c-.17,0-.25-.08-.25-.24v-8.8c0-.16.08-.24.25-.24h.81a.31.31,0,0,1,.31.16l3.5,6.28h.06v-6.2a.21.21,0,0,1,.24-.24h.9a.21.21,0,0,1,.24.24v8.8a.21.21,0,0,1-.24.24h-.78a.42.42,0,0,1-.38-.23l-3.46-6.21h-.06v6.2C102.78,106.55,102.7,106.63,102.53,106.63Zm9.82,0h-.91c-.17,0-.26-.08-.26-.24V98.72c0-.1-.05-.15-.14-.15h-1.82c-.17,0-.26-.08-.26-.24v-.74c0-.16.09-.24.26-.24h5.36c.17,0,.26.08.26.24v.74c0,.16-.09.24-.26.24h-1.82c-.11,0-.16.05-.16.15v7.67C112.6,106.55,112.52,106.63,112.35,106.63Zm8.59,0h-4.62a.21.21,0,0,1-.24-.24v-8.8a.21.21,0,0,1,.24-.24h4.62a.21.21,0,0,1,.24.24v.74a.21.21,0,0,1-.24.24h-3.29c-.11,0-.17.05-.17.15v2.44c0,.1.06.14.17.14h2.79a.23.23,0,0,1,.26.25v.74c0,.16-.09.24-.26.24h-2.79c-.11,0-.17,0-.17.15v2.57c0,.1.06.15.17.15h3.29a.22.22,0,0,1,.24.25v.74A.21.21,0,0,1,120.94,106.63Zm3.21,0h-.9a.21.21,0,0,1-.24-.24v-8.8a.21.21,0,0,1,.24-.24h.81a.32.32,0,0,1,.32.16l3.5,6.28h.05v-6.2c0-.16.08-.24.25-.24h.89c.17,0,.25.08.25.24v8.8c0,.16-.08.24-.25.24h-.78a.41.41,0,0,1-.37-.23l-3.47-6.21h0v6.2A.22.22,0,0,1,124.15,106.63Zm9.82,0h-.91c-.17,0-.26-.08-.26-.24V98.72a.13.13,0,0,0-.15-.15h-1.81c-.18,0-.26-.08-.26-.24v-.74c0-.16.08-.24.26-.24h5.35c.18,0,.26.08.26.24v.74c0,.16-.08.24-.26.24h-1.82a.14.14,0,0,0-.16.15v7.67A.21.21,0,0,1,134,106.63Zm8.32,0h-.91c-.17,0-.25-.08-.25-.24v-8.8c0-.16.08-.24.25-.24h3.43a2,2,0,0,1,2.24,2.24v1.5a2.06,2.06,0,0,1-2.24,2.24H142.7c-.11,0-.17,0-.17.14v2.92A.21.21,0,0,1,142.29,106.63Zm.4-4.55h1.92a.93.93,0,0,0,1-1.06V99.64a.93.93,0,0,0-1-1.07h-1.92c-.11,0-.16.05-.16.15v3.22C142.53,102,142.58,102.08,142.69,102.08Zm11,4.55H149a.22.22,0,0,1-.25-.24v-8.8a.22.22,0,0,1,.25-.24h.91a.22.22,0,0,1,.25.24v7.64c0,.1.05.15.17.15h3.35c.16,0,.24.08.24.26v.75A.21.21,0,0,1,153.68,106.63Zm2.08,0h-1c-.14,0-.18-.08-.15-.24l2.52-8.8a.31.31,0,0,1,.34-.24h1.45a.31.31,0,0,1,.34.24l2.52,8.8c0,.16,0,.24-.16.24h-1c-.09,0-.15,0-.18,0a.43.43,0,0,1-.08-.19l-.55-1.88h-3.17l-.55,1.88C156,106.55,155.89,106.63,155.76,106.63Zm2.37-7.9-1.27,4.62h2.61l-1.29-4.62Zm7.58,7.9h-.91c-.18,0-.26-.08-.26-.24V98.72a.13.13,0,0,0-.15-.15h-1.82c-.17,0-.26-.08-.26-.24v-.74c0-.16.09-.24.26-.24h5.36c.17,0,.26.08.26.24v.74c0,.16-.09.24-.26.24h-1.82c-.11,0-.16.05-.16.15v7.67A.21.21,0,0,1,165.71,106.63Zm4.88,0h-.91c-.17,0-.25-.08-.25-.24v-8.8c0-.16.08-.24.25-.24h4.53a.22.22,0,0,1,.25.24v.74a.22.22,0,0,1-.25.24H171q-.18,0-.18.15v2.73c0,.1.06.16.18.16h2.78c.18,0,.26.08.26.24v.72c0,.18-.08.26-.26.26H171q-.18,0-.18.15v3.41A.21.21,0,0,1,170.59,106.63Zm9.17,0h-1.68a2,2,0,0,1-2.24-2.24v-4.8a2,2,0,0,1,2.24-2.24h1.68a2.27,2.27,0,0,1,1.66.58,2.24,2.24,0,0,1,.59,1.66v4.8a2.23,2.23,0,0,1-.59,1.65A2.27,2.27,0,0,1,179.76,106.63Zm-1.48-1.23h1.26a.93.93,0,0,0,1.05-1.06v-4.7a.94.94,0,0,0-1.05-1.07h-1.26a.94.94,0,0,0-1,1.07v4.7A.93.93,0,0,0,178.28,105.4Zm6.83,1.23h-.91a.21.21,0,0,1-.24-.24v-8.8a.21.21,0,0,1,.24-.24h3.38a2.06,2.06,0,0,1,2.25,2.25v1.21a1.94,1.94,0,0,1-1.37,2.1v0l1.61,3.38c.1.2,0,.29-.19.29H189a.42.42,0,0,1-.44-.24L187,103.07h-1.46c-.11,0-.17,0-.17.14v3.18C185.36,106.55,185.28,106.63,185.11,106.63Zm.41-4.72h1.83a.94.94,0,0,0,1.07-1V99.64a1,1,0,0,0-1.07-1.07h-1.83c-.11,0-.16.05-.16.15v3C185.36,101.86,185.41,101.91,185.52,101.91Zm12.62-4.56h1.61c.17,0,.25.08.25.24v8.8c0,.16-.08.24-.25.24h-.89a.22.22,0,0,1-.25-.24v-7.3h-.05l-1.88,5.29a.32.32,0,0,1-.32.23h-.92a.32.32,0,0,1-.31-.23l-1.92-5.3h-.05v7.31a.29.29,0,0,1,0,.19.27.27,0,0,1-.2,0H192a.22.22,0,0,1-.25-.24v-8.8a.22.22,0,0,1,.25-.24h1.62a.24.24,0,0,1,.23.16l2,5.57h.07l2-5.57C197.94,97.4,198,97.35,198.14,97.35ZM.51,0V90H5l.21-44.9v-6H36.88l7.22,7.22V90h4.76V44.34l-7.63-7.63,7.63-7.63V17l-17-17ZM44.1,27.1l-7.22,7.23H5.27V4.79H29.9L44.1,19ZM74.89,0,55.41,36.11V90h4.76V41.51l18.42,14L97,41.51V90h4.76V36.11L82.29,0Zm3.7,49.53L60.85,36.05,77.73,4.79h1.72L96.32,36.05ZM113.31,22V11.67l6.89-6.88h29.61V0H118.23L108.55,9.7V80l9.68,9.68h31.58V85H120.2l-6.89-6.89V22ZM195.24,0V23.92L177.9,41.27,160.56,23.92V0H155.8V25.9l19.72,19.72V90h4.76V45.62L200,25.9V0Z"/></g></g></svg>