<svg xmlns="http://www.w3.org/2000/svg" viewBox="0 0 67.18 67.18"><defs><style>.cls-1{fill:#ca9cd0;}.cls-2{fill:none;}</style></defs><g id="레이어_2" data-name="레이어 2"><g id="레이어_2-2" data-name="레이어 2"><path class="cls-1" d="M33.59,48.35A14.77,14.77,0,1,1,48.35,33.59,14.78,14.78,0,0,1,33.59,48.35Zm0-24.61a9.85,9.85,0,1,0,9.85,9.85A9.86,9.86,0,0,0,33.59,23.74Z"/><path class="cls-1" d="M47.32,62.33H19.85a15,15,0,0,1-15-15V19.85a15,15,0,0,1,15-15H47.32a15,15,0,0,1,15,15V47.32A15,15,0,0,1,47.32,62.33ZM19.85,9.76A10.11,10.11,0,0,0,9.76,19.85V47.32A10.1,10.1,0,0,0,19.85,57.41H47.32A10.09,10.09,0,0,0,57.41,47.32V19.85A10.1,10.1,0,0,0,47.32,9.76Z"/><path class="cls-1" d="M52.16,18.16a3.4,3.4,0,1,1-3.39-3.4A3.39,3.39,0,0,1,52.16,18.16Z"/><rect class="cls-2" width="67.18" height="67.18"/></g></g></svg>