<svg xmlns="http://www.w3.org/2000/svg" viewBox="0 0 67.18 67.18"><defs><style>.cls-1{fill:#ca9cd0;}.cls-2{fill:none;}</style></defs><g id="레이어_2" data-name="레이어 2"><g id="레이어_2-2" data-name="레이어 2"><path class="cls-1" d="M55.18,11.07,6.45,29.89a1.83,1.83,0,0,0,.09,3.44l12.31,4.05L24.23,54v0h0a.13.13,0,0,0,0,0,.56.56,0,0,0,.87.14l8.39-7.92,13,9.58a1.82,1.82,0,0,0,2.87-1.12l8.19-41.62A1.83,1.83,0,0,0,55.18,11.07ZM25.44,40.25l-.88,10.51L20.4,37.91,44.85,22.4Z"/><rect class="cls-2" width="67.18" height="67.18"/></g></g></svg>