<svg xmlns="http://www.w3.org/2000/svg" viewBox="0 0 67.18 67.18"><defs><style>.cls-1{fill:#ca9cd0;}.cls-2{fill:none;}</style></defs><g id="레이어_2" data-name="레이어 2"><g id="레이어_2-2" data-name="레이어 2"><path class="cls-1" d="M61.14,17.2a27.55,27.55,0,0,1-3.89,4.4C55.68,23,56,24,55.8,26A34.44,34.44,0,0,1,54,34.54a32.69,32.69,0,0,1-9.7,14.11c-10.56,9-26.84,9.38-38.42,2.21,8.53.36,12.35-1.39,16.79-4.68-4.46-.64-8.46-1.83-10.65-8a8.65,8.65,0,0,0,5-.07C12.89,36.86,8.06,34.87,8.06,27a9.68,9.68,0,0,0,5.12,1.36C7.64,24.46,7.19,18,9.71,13.22,13.27,18.54,26.44,26,32.44,24.69A11.68,11.68,0,0,1,40,12a12.69,12.69,0,0,1,9,.21,9.66,9.66,0,0,1,3.2,2.08.9.9,0,0,0,.46.3.73.73,0,0,0,.39,0,39.72,39.72,0,0,0,6.23-2.52c.36-.21-1.84,5-4.83,6.28a51.48,51.48,0,0,0,5.82-1.82,1.23,1.23,0,0,1,.76-.1C61.29,16.55,61.41,16.83,61.14,17.2Z"/><rect class="cls-2" width="67.18" height="67.18"/></g></g></svg>