<svg xmlns="http://www.w3.org/2000/svg" xmlns:xlink="http://www.w3.org/1999/xlink" viewBox="0 0 1345.46 452.35"><defs><style>.cls-1{fill:#fff;}.cls-2{fill:url(#무제_그라디언트_37);}.cls-3{fill:url(#무제_그라디언트_45);}.cls-4{fill:url(#무제_그라디언트_42);}.cls-5{fill:url(#무제_그라디언트_45-2);}.cls-6{fill:url(#무제_그라디언트_42-2);}</style><linearGradient id="무제_그라디언트_37" x1="195.87" y1="452.35" x2="195.87" gradientUnits="userSpaceOnUse"><stop offset="0" stop-color="#6d54d3"/><stop offset="0.48" stop-color="#17b0ff"/><stop offset="1" stop-color="#00dddb"/></linearGradient><linearGradient id="무제_그라디언트_45" x1="85.31" y1="116.4" x2="207.2" y2="239.96" gradientUnits="userSpaceOnUse"><stop offset="0" stop-color="#6d54d3"/><stop offset="0.48" stop-color="#17b0ff"/><stop offset="1" stop-color="#07d0e5"/></linearGradient><linearGradient id="무제_그라디언트_42" x1="-7100.49" y1="116.4" x2="-6978.6" y2="239.96" gradientTransform="matrix(-1, 0, 0, 1, -6794.05, 0)" gradientUnits="userSpaceOnUse"><stop offset="0" stop-color="#6d54d3"/><stop offset="0.48" stop-color="#17b0ff"/><stop offset="1" stop-color="#00ffdb"/></linearGradient><linearGradient id="무제_그라디언트_45-2" x1="-7100.49" y1="1330.51" x2="-6978.6" y2="1454.07" gradientTransform="translate(-6794.05 1666.46) rotate(180)" xlink:href="#무제_그라디언트_45"/><linearGradient id="무제_그라디언트_42-2" x1="85.31" y1="1330.51" x2="207.2" y2="1454.07" gradientTransform="matrix(1, 0, 0, -1, 0, 1666.46)" xlink:href="#무제_그라디언트_42"/></defs><g id="레이어_2" data-name="레이어 2"><g id="레이어_2-2" data-name="레이어 2"><path class="cls-1" d="M559.93,237.87l-.35-64.52-31.3,52.52H513l-31.13-50.78v62.78H450V116.14h28.35l42.78,70.25,41.74-70.25h28.34l.35,121.73Z"/><path class="cls-1" d="M615.93,116.14h34.43V237.87H615.93Z"/><path class="cls-1" d="M790.7,116.14V237.87H762.36L708.62,173v64.87H674.88V116.14h28.35L757,181V116.14Z"/><path class="cls-1" d="M841,143.44H803.58v-27.3h109v27.3H875.4v94.43H841Z"/><path class="cls-1" d="M1113.48,116.14,1074,237.87h-36.87l-23.3-74.08-24.35,74.08H952.62L913.14,116.14h35.48l24.52,77.73,25.73-77.73h31.65L1055,194.57l25.57-78.43Z"/><path class="cls-1" d="M1192.78,214.22h-51.47l-9.57,23.65h-35.13l53.74-121.73h33.91l53.91,121.73h-35.82Zm-10.08-25.39-15.66-39-15.65,39Z"/><path class="cls-1" d="M1298.52,194.22v43.65h-34.44V193.7l-46.43-77.56H1254l28.87,48.34,28.87-48.34h33.38Z"/><path class="cls-1" d="M450.18,314.59V286.93h5.1v27.45c0,11.45,5.38,16.7,14.76,16.7s14.83-5.25,14.83-16.7V286.93h5v27.66c0,13.86-7.45,21-19.8,21S450.18,328.45,450.18,314.59Z"/><path class="cls-1" d="M537.56,314.18v21h-4.9V314.66c0-7.65-4-11.59-10.89-11.59-7.8,0-12.69,4.83-12.69,13.11v19h-4.9V298.94h4.69v6.69c2.62-4.42,7.52-7,13.79-7C531.49,298.66,537.56,303.76,537.56,314.18Z"/><path class="cls-1" d="M549.76,287.49a3.53,3.53,0,0,1,3.59-3.45,3.48,3.48,0,1,1,0,7A3.55,3.55,0,0,1,549.76,287.49Zm1.11,11.45h4.89v36.27h-4.89Z"/><path class="cls-1" d="M581.21,283.69a11.47,11.47,0,0,1,7.24,2.28l-1.65,3.65a8.31,8.31,0,0,0-5.38-1.79c-4.21,0-6.42,2.35-6.42,6.83v4.28h11.18v4.13h-11v32.14h-4.9V303.07h-6.48v-4.13h6.48v-4.49C570.24,288,574.11,283.69,581.21,283.69Zm23.17,3.73A3.51,3.51,0,0,1,600.8,291a3.48,3.48,0,1,1,0-7A3.47,3.47,0,0,1,604.38,287.42Zm-6.06,11.52h4.89v36.27h-4.89Z"/><path class="cls-1" d="M648.45,318.59H618.1c.56,7.59,6.35,12.62,14.28,12.62a14.28,14.28,0,0,0,11.11-4.76l2.75,3.18c-3.24,3.86-8.27,5.93-14,5.93-11.31,0-19-7.73-19-18.49s7.52-18.41,17.72-18.41,17.59,7.52,17.59,18.41C648.52,317.49,648.45,318,648.45,318.59Zm-30.35-3.65h25.73c-.62-7.11-5.79-12.07-12.9-12.07S618.73,307.83,618.1,314.94Z"/><path class="cls-1" d="M691.62,284v51.17h-4.69V328c-3,4.9-8,7.52-14,7.52-10.34,0-18.07-7.52-18.07-18.49s7.73-18.41,18.07-18.41a15.86,15.86,0,0,1,13.8,7.17V284Zm-4.83,33c0-8.48-5.79-14.13-13.45-14.13s-13.51,5.65-13.51,14.13,5.79,14.14,13.51,14.14S686.79,325.56,686.79,317.07Z"/><path class="cls-1" d="M764.72,286.93v48.28h-4.2l-31-39.17v39.17h-5.1V286.93h4.2l31.11,39.18V286.93Z"/><path class="cls-1" d="M785.55,291.35v19h25v4.41h-25v20.48h-5.11V286.93h33.11v4.42Z"/><path class="cls-1" d="M833.82,291.35h-17v-4.42h39v4.42h-17v43.86h-5.1Z"/><path class="cls-1" d="M919.89,303.49c0,10.27-7.45,16.48-19.73,16.48h-13v15.24h-5.11V286.93h18.07C912.44,286.93,919.89,293.14,919.89,303.49Zm-5.11,0c0-7.73-5.1-12.14-14.76-12.14H887.2v24.14H900C909.68,315.49,914.78,311.07,914.78,303.49Z"/><path class="cls-1" d="M926,317.07c0-10.75,7.86-18.41,18.48-18.41s18.42,7.66,18.42,18.41-7.79,18.49-18.42,18.49S926,327.83,926,317.07Zm31.93,0c0-8.48-5.72-14.13-13.45-14.13S931,308.59,931,317.07s5.79,14.14,13.51,14.14S958,325.56,958,317.07Z"/><path class="cls-1" d="M991.19,298.66v4.76c-.41,0-.82-.07-1.17-.07-7.59,0-12.21,4.83-12.21,13.38v18.48h-4.89V298.94h4.69V306C979.88,301.21,984.5,298.66,991.19,298.66Z"/><path class="cls-1" d="M1020.71,333a11.69,11.69,0,0,1-7.66,2.55c-6.82,0-10.62-3.86-10.62-10.55V303.07H996v-4.13h6.48V291h4.9v7.94h11v4.13h-11v21.66c0,4.28,2.21,6.62,6.28,6.62a8.11,8.11,0,0,0,5.38-1.86Z"/><path class="cls-1" d="M1057,312.73v22.48h-4.69v-5.65c-2.21,3.72-6.49,6-12.49,6-8.21,0-13.24-4.28-13.24-10.55,0-5.59,3.59-10.28,14-10.28h11.52v-2.21c0-6.2-3.52-9.58-10.28-9.58a18.49,18.49,0,0,0-12.07,4.27l-2.21-3.65c3.66-3.11,9-4.9,14.76-4.9C1051.67,298.66,1057,303.35,1057,312.73Zm-4.9,11.59v-5.94h-11.38c-7,0-9.31,2.76-9.31,6.49,0,4.21,3.38,6.83,9.17,6.83C1046.09,331.7,1050.16,329.08,1052.09,324.32Z"/><path class="cls-1" d="M1070.29,284h4.9v51.17h-4.9Z"/><path class="cls-1" d="M1103.33,329.35l2-3.93c3.44,3.38,9.58,5.86,15.93,5.86,9,0,13-3.79,13-8.55,0-13.24-29.72-5.1-29.72-23,0-7.1,5.52-13.24,17.79-13.24a27.26,27.26,0,0,1,15,4.28l-1.73,4.07a24.82,24.82,0,0,0-13.24-4c-8.83,0-12.76,3.93-12.76,8.76,0,13.24,29.73,5.24,29.73,22.82,0,7.11-5.66,13.18-18,13.18C1114,335.63,1106.91,333.08,1103.33,329.35Z"/><path class="cls-1" d="M1180.91,318.59h-30.34c.55,7.59,6.34,12.62,14.27,12.62a14.28,14.28,0,0,0,11.11-4.76l2.75,3.18c-3.24,3.86-8.27,5.93-14,5.93-11.31,0-19-7.73-19-18.49s7.52-18.41,17.72-18.41,17.59,7.52,17.59,18.41C1181,317.49,1180.91,318,1180.91,318.59Zm-30.34-3.65h25.72c-.62-7.11-5.79-12.07-12.9-12.07S1151.19,307.83,1150.57,314.94Z"/><path class="cls-1" d="M1209.25,298.66v4.76c-.41,0-.82-.07-1.17-.07-7.59,0-12.21,4.83-12.21,13.38v18.48H1191V298.94h4.69V306C1197.94,301.21,1202.56,298.66,1209.25,298.66Z"/><path class="cls-1" d="M1250.15,298.94,1234,335.21h-5l-16.07-36.27h5.1l13.59,30.89,13.72-30.89Z"/><path class="cls-1" d="M1255.94,287.49a3.53,3.53,0,0,1,3.59-3.45,3.47,3.47,0,0,1,3.58,3.38,3.59,3.59,0,0,1-7.17.07Zm1.1,11.45h4.9v36.27H1257Z"/><path class="cls-1" d="M1271.94,317.07c0-10.82,7.86-18.41,18.69-18.41,6.14,0,11.31,2.41,14.21,7.17l-3.66,2.49a12.31,12.31,0,0,0-10.55-5.38c-7.93,0-13.73,5.65-13.73,14.13s5.8,14.14,13.73,14.14a12.25,12.25,0,0,0,10.55-5.31l3.66,2.49c-2.9,4.69-8.07,7.17-14.21,7.17C1279.8,335.56,1271.94,327.9,1271.94,317.07Z"/><path class="cls-1" d="M1345.39,318.59H1315c.55,7.59,6.35,12.62,14.28,12.62a14.28,14.28,0,0,0,11.1-4.76l2.76,3.18c-3.24,3.86-8.28,5.93-14,5.93-11.31,0-19-7.73-19-18.49s7.52-18.41,17.73-18.41,17.59,7.52,17.59,18.41C1345.46,317.49,1345.39,318,1345.39,318.59ZM1315,314.94h25.73c-.62-7.11-5.8-12.07-12.9-12.07S1315.66,307.83,1315,314.94Z"/><path class="cls-2" d="M195.87,452.35,0,339.26V113.09L195.87,0,391.75,113.09V339.26ZM10.64,333.12,195.87,440.06,381.1,333.12V119.23L195.87,12.29,10.64,119.23Z"/><path class="cls-3" d="M223.39,226.17A122.93,122.93,0,0,0,100.46,103.24V212.4l13.78,13.77Z"/><path class="cls-4" d="M168.35,226.17A122.94,122.94,0,0,1,291.29,103.24V212.4l-13.78,13.77Z"/><path class="cls-5" d="M168.35,226.17A122.94,122.94,0,0,0,291.29,349.11V240l-13.78-13.78Z"/><path class="cls-6" d="M223.39,226.17A122.94,122.94,0,0,1,100.46,349.11V240l13.78-13.78Z"/></g></g></svg>